# Blender v2.93.0 OBJ File: ''
# www.blender.org
mtllib cube.mtl
o Cube_Cube.001
v -0.500000 -0.000000 0.500000
v -0.500000 0.415301 0.500000
v -0.500000 0.415301 -0.500000
v -0.500000 0.000000 -0.500000
v 0.500000 0.415301 -0.500000
v 0.500000 0.000000 -0.500000
v 0.500000 0.415301 0.500000
v 0.500000 -0.000000 0.500000
v -0.453767 0.472153 0.453767
v -0.453767 0.472153 -0.453767
v 0.453767 0.472153 -0.453767
v 0.453767 0.472153 0.453767
v -0.500000 -0.415301 -0.500000
v -0.500000 -0.415301 0.500000
v 0.500000 -0.415301 -0.500000
v 0.500000 -0.415301 0.500000
v -0.453767 -0.472153 -0.453767
v -0.453767 -0.472153 0.453767
v 0.453767 -0.472153 -0.453767
v 0.453767 -0.472153 0.453767
vt 0.375000 0.000000
vt 0.625000 0.000000
vt 0.625000 0.250000
vt 0.375000 0.250000
vt 0.625000 0.500000
vt 0.375000 0.500000
vt 0.625000 0.750000
vt 0.375000 0.750000
vt 0.625000 1.000000
vt 0.375000 1.000000
vt 0.625000 0.000000
vt 0.625000 0.250000
vt 0.625000 0.500000
vt 0.875000 0.500000
vt 0.875000 0.750000
vt 0.625000 0.750000
vt 0.625000 1.000000
vt 0.625000 0.250000
vt 0.625000 0.000000
vt 0.625000 0.500000
vt 0.625000 0.750000
vt 0.625000 1.000000
vt 0.125000 0.500000
vt 0.125000 0.750000
vt 0.625000 0.250000
vt 0.625000 0.000000
vt 0.625000 0.500000
vt 0.625000 0.750000
vt 0.875000 0.750000
vt 0.875000 0.500000
vt 0.625000 1.000000
vn -1.0000 -0.0000 0.0000
vn 0.0000 0.0000 -1.0000
vn 1.0000 0.0000 0.0000
vn 0.0000 -0.0000 1.0000
vn -0.7758 0.6309 0.0000
vn 0.0000 1.0000 0.0000
vn 0.0000 0.6309 0.7758
vn 0.0000 0.6309 -0.7758
vn 0.7758 0.6309 0.0000
vn -0.7758 -0.6309 -0.0000
vn 0.0000 -1.0000 -0.0000
vn 0.0000 -0.6309 0.7758
vn 0.0000 -0.6309 -0.7758
vn 0.7758 -0.6309 -0.0000
usemtl None.001
s 1
f 1/1/1 2/2/1 3/3/1 4/4/1
f 4/4/2 3/3/2 5/5/2 6/6/2
f 6/6/3 5/5/3 7/7/3 8/8/3
f 8/8/4 7/7/4 2/9/4 1/10/4
f 3/3/5 2/2/5 9/11/5 10/12/5
f 11/13/6 10/14/6 9/15/6 12/16/6
f 2/9/7 7/7/7 12/16/7 9/17/7
f 5/5/8 3/3/8 10/12/8 11/13/8
f 7/7/9 5/5/9 11/13/9 12/16/9
f 1/1/1 4/4/1 13/18/1 14/19/1
f 4/4/2 6/6/2 15/20/2 13/18/2
f 6/6/3 8/8/3 16/21/3 15/20/3
f 8/8/4 1/10/4 14/22/4 16/21/4
f 4/23/6 1/24/6 8/8/6 6/6/6
f 13/18/10 17/25/10 18/26/10 14/19/10
f 19/27/11 20/28/11 18/29/11 17/30/11
f 14/22/12 18/31/12 20/28/12 16/21/12
f 15/20/13 19/27/13 17/25/13 13/18/13
f 16/21/14 20/28/14 19/27/14 15/20/14
